<?xml version="1.0" encoding="utf-8"?><svg viewBox="0 0 24 24" xmlns="http://www.w3.org/2000/svg" xmlns:xlink="http://www.w3.org/1999/xlink"><style>:root>svg{display:none}:root>svg:target{display:block}</style><svg viewBox="0 0 24 24" id="close" xmlns="http://www.w3.org/2000/svg"><path d="M23.361 21.15l-9.302-9.29 9.303-9.184.317-.317c.317-.422.422-.95.211-1.372-.211-.422-.529-.845-1.057-.95-.529-.106-1.057 0-1.586.528l-9.302 9.29-6.66-6.651L2.643.564C2.22.038 1.69-.068 1.163.038.634.142.21.565 0 1.092v.74c.106.422.423.738.74 1.055l9.09 9.079-9.09 9.078c-.317.317-.634.634-.74 1.056v.633c.211.634.529 1.056 1.163 1.267h.634c.423-.106.74-.422 1.057-.633l9.091-9.079 9.09 9.079c.318.316.53.527.952.633h.635l.21-.106c.53-.21.952-.738.952-1.372.106-.633-.105-.95-.422-1.372z"/></svg></svg>